<?xml version="1.0" standalone="no"?>
<!DOCTYPE svg PUBLIC "-//W3C//DTD SVG 20010904//EN"
 "http://www.w3.org/TR/2001/REC-SVG-20010904/DTD/svg10.dtd">
<svg version="1.0" xmlns="http://www.w3.org/2000/svg"
 width="299.000000pt" height="299.000000pt" viewBox="0 0 299.000000 299.000000"
 preserveAspectRatio="xMidYMid meet">
<metadata>
Created by potrace 1.11, written by Peter Selinger 2001-2013
</metadata>
<g transform="translate(0.000000,299.000000) scale(0.100000,-0.100000)"
fill="#000000" stroke="none">
<path d="M1058 2660 c-98 -25 -207 -129 -264 -254 -49 -107 -64 -355 -31 -521
l13 -70 7 56 c4 31 14 74 23 95 9 21 18 49 20 62 7 37 63 173 95 229 59 103
135 163 207 163 57 0 167 -73 307 -203 42 -39 89 -58 144 -58 52 1 66 8 89 50
29 51 28 100 -4 163 -93 183 -415 336 -606 288z"/>
<path d="M2056 2569 c-58 -14 -119 -56 -154 -108 -131 -192 62 -436 294 -372
128 35 211 174 176 296 -39 137 -177 217 -316 184z"/>
<path d="M2969 2138 c0 -2 -2 -10 -4 -19 -9 -45 -84 -178 -137 -241 -39 -47
-189 -178 -204 -178 -4 0 -15 -6 -23 -13 -9 -8 -35 -21 -59 -30 -37 -15 -47
-15 -75 -4 -36 16 -89 66 -104 100 -11 23 -19 43 -49 117 -33 83 -67 129 -111
151 -63 30 -109 7 -147 -75 -61 -131 65 -391 240 -496 54 -32 64 -35 139 -34
68 0 89 4 140 30 182 90 290 215 378 439 9 22 21 59 27 83 12 49 11 172 -2
172 -4 0 -8 -1 -9 -2z"/>
<path d="M959 1699 c-66 -17 -99 -70 -95 -151 4 -56 33 -109 87 -156 21 -19
39 -41 39 -48 0 -13 -482 -507 -844 -866 -82 -81 -144 -148 -137 -148 13 0 99
46 115 61 6 5 18 9 27 9 10 0 19 3 21 8 4 10 425 262 438 262 5 0 10 4 10 9 0
5 8 11 18 14 16 5 63 32 87 50 5 4 79 48 163 98 85 50 216 138 292 195 154
117 146 115 236 53 57 -39 60 -72 9 -121 -49 -47 -141 -96 -622 -330 -24 -11
-40 -24 -38 -28 5 -8 76 -6 192 5 91 8 124 15 308 65 169 46 256 77 321 115
119 70 212 195 199 268 -16 83 -133 225 -314 382 -135 116 -215 170 -324 217
-89 39 -143 49 -188 37z"/>
</g>
</svg>
